<?xml version="1.0" encoding="utf-8"?>
<!-- Generator: Adobe Illustrator 19.0.0, SVG Export Plug-In . SVG Version: 6.00 Build 0)  -->
<svg version="1.1" id="Layer_1" xmlns="http://www.w3.org/2000/svg" xmlns:xlink="http://www.w3.org/1999/xlink" x="0px" y="0px"
	 viewBox="0 680.4 2000 641.6" style="enable-background:new 0 680.4 2000 641.6;" xml:space="preserve">
<style type="text/css">
	.st0{fill:#FFFFFF;}
</style>
<g id="XMLID_10_">
	<path id="XMLID_15_" class="st0" d="M637.2,1116.8c0,42.4-0.9,79.7-2.5,111.8c-1.7,32.2-3,52.5-3.8,61c0,6.8-2.5,12.7-7.6,17.8
		s-11.4,7.6-19.1,7.6h-67.4c-5.9,0-11.4-2.5-16.5-7.6s-8.1-11-8.9-17.8l-1.3-55.9c0-1.7-0.6-3-1.9-3.8s-2.8-0.4-4.4,1.3
		c-17,23.7-43.2,43.6-78.8,59.7s-69.9,24.1-102.9,24.1c-56.8,0-109.3-14-157.6-41.9c-48.4-27.9-86.5-66-114.5-114.3
		S8.1,1058,8.1,1001.2c0-56.8,14-109.1,41.9-157c28-47.9,66.1-86,114.4-114.4c48.3-28.3,100.8-42.5,157.6-42.5
		c55.1,0,105.9,13.3,152.5,40c46.6,26.7,84.1,62.7,112.5,108c28.4,45.3,43.8,95.5,46.4,150.6
		C635.9,1032.5,637.2,1076.2,637.2,1116.8z M415.4,1162.6c28.4-16.9,50.8-39.8,67.4-68.6c16.5-28.8,24.8-60.2,24.8-94
		c0-33.9-8.5-65-25.4-93.4c-17-28.4-39.6-50.8-68-67.4c-28.4-16.5-59.5-24.8-93.4-24.8c-33,0-63.8,8.5-92.1,25.4
		c-28.4,17-51.1,39.6-68,68c-17,28.4-25.4,59.5-25.4,93.4c0,33.9,8.5,65,25.4,93.4s39.6,51.1,68,68c28.4,17,59.5,25.4,93.4,25.4
		C355.9,1188,387,1179.6,415.4,1162.6z"/>
	<path id="XMLID_13_" class="st0" d="M1700.9,1292.2c0,5.9-2.1,11.2-6.4,15.9c-4.3,4.7-9.8,7-16.5,7h-71.2c-5.9,0-11.2-2.3-15.9-7
		c-4.7-4.6-7-9.9-7-15.9l-3.8-338.1c0-46.6-14-83-41.9-109.3c-28-26.3-61.4-39.4-100.4-39.4c-38.1,0-71.2,13.1-99.1,39.4
		c-28,26.3-41.9,62.7-41.9,109.3l-3.8,338.1c0,5.9-2.1,11.2-6.4,15.9c-4.3,4.7-9.8,7-16.5,7h-71.2c-5.9,0-11.2-2.3-15.9-7
		c-4.7-4.6-7-9.9-7-15.9l-5.1-338.1c0-46.6-14-83-41.9-109.3c-28-26.3-61-39.4-99.1-39.4s-71.4,13.1-99.8,39.4
		c-28.4,26.3-42.6,62.7-42.6,109.3l-3.8,338.1c0,5.9-2.1,11.2-6.4,15.9c-4.3,4.7-9.8,7-16.5,7h-71.2c-5.9,0-11.2-2.3-15.9-7
		c-4.7-4.6-7-9.9-7-15.9l-3.8-352l1.3-218.6c0-6.8,2.3-12.3,7-16.5c4.6-4.2,9.9-6.4,15.9-6.4h76.3c5.9,0,11,2.1,15.3,6.4
		c4.2,4.3,6.8,9.3,7.6,15.3v33c16.1-22,37.1-38.5,62.9-49.6c25.8-11,54.4-16.5,85.8-16.5c39,0,77.3,8.5,115,25.4
		c37.7,17,68,40.3,90.9,69.9c48.3-63.5,113.9-95.3,197-95.3c58.5,0,107.6,12.5,147.4,37.5s69.7,57.8,89.6,98.5
		c19.9,40.7,29.9,84.3,29.9,130.9L1700.9,1292.2z"/>
	<path id="XMLID_11_" class="st0" d="M1991.9,1236.3c0,21.2-7.8,39.6-23.5,55.3c-15.7,15.7-34.5,23.5-56.6,23.5
		c-22,0-40.9-7.6-56.6-22.9s-23.5-33.9-23.5-55.9s7.8-40.9,23.5-56.6s34.5-23.5,56.6-23.5c22,0,40.9,7.8,56.6,23.5
		S1991.9,1214.3,1991.9,1236.3z"/>
</g>
</svg>
